<?xml version="1.0" encoding="UTF-8"?>
<!DOCTYPE svg PUBLIC "-//W3C//DTD SVG 1.1//EN" "http://www.w3.org/Graphics/SVG/1.1/DTD/svg11.dtd">
<svg xmlns="http://www.w3.org/2000/svg" version="1.1" width="1080px" height="1080px" style="shape-rendering:geometricPrecision; text-rendering:geometricPrecision; image-rendering:optimizeQuality; fill-rule:evenodd; clip-rule:evenodd" xmlns:xlink="http://www.w3.org/1999/xlink">
<g><path style="opacity:1" fill="#1d1d1d" d="M 770.5,443.5 C 768.787,442.365 768.12,440.698 768.5,438.5C 771.473,426.688 773.14,414.688 773.5,402.5C 774.499,353.336 774.832,304.003 774.5,254.5C 617.833,254.5 461.167,254.5 304.5,254.5C 304.168,304.003 304.501,353.336 305.5,402.5C 305.972,420.859 309.638,438.525 316.5,455.5C 316.843,457.483 316.176,458.817 314.5,459.5C 308.021,445.262 303.854,430.262 302,414.5C 301.5,360.168 301.333,305.834 301.5,251.5C 460.167,251.5 618.833,251.5 777.5,251.5C 777.667,305.834 777.5,360.168 777,414.5C 775.906,424.532 773.739,434.198 770.5,443.5 Z M 478.5,303.5 C 495.46,303.961 502.96,312.628 501,329.5C 495.836,340.499 487.336,344.666 475.5,342C 461.675,334.518 458.841,324.018 467,310.5C 470.557,307.482 474.391,305.149 478.5,303.5 Z M 592.5,303.5 C 609.419,303.355 617.252,311.689 616,328.5C 609.248,343.148 598.748,346.648 584.5,339C 576.602,330.745 575.435,321.579 581,311.5C 584.15,307.689 587.983,305.023 592.5,303.5 Z"/></g>
<g><path style="opacity:0.025" fill="#e7e7e7" d="M 773.5,402.5 C 773.5,353.5 773.5,304.5 773.5,255.5C 617.5,255.5 461.5,255.5 305.5,255.5C 305.5,304.5 305.5,353.5 305.5,402.5C 304.501,353.336 304.168,304.003 304.5,254.5C 461.167,254.5 617.833,254.5 774.5,254.5C 774.832,304.003 774.499,353.336 773.5,402.5 Z M 478.5,303.5 C 474.391,305.149 470.557,307.482 467,310.5C 458.841,324.018 461.675,334.518 475.5,342C 487.336,344.666 495.836,340.499 501,329.5C 502.96,312.628 495.46,303.961 478.5,303.5 Z M 592.5,303.5 C 587.983,305.023 584.15,307.689 581,311.5C 575.435,321.579 576.602,330.745 584.5,339C 598.748,346.648 609.248,343.148 616,328.5C 617.252,311.689 609.419,303.355 592.5,303.5 Z"/></g>
<g><path style="opacity:1" fill="#2f2f2f" d="M 504.5,313.5 C 505.292,319.13 505.625,324.797 505.5,330.5C 499.429,345.867 488.429,351.033 472.5,346C 457.613,337.617 453.947,325.783 461.5,310.5C 462.906,310.027 463.573,309.027 463.5,307.5C 468.355,301.646 474.689,298.646 482.5,298.5C 493.003,299.069 500.337,304.069 504.5,313.5 Z M 478.5,303.5 C 474.391,305.149 470.557,307.482 467,310.5C 458.841,324.018 461.675,334.518 475.5,342C 487.336,344.666 495.836,340.499 501,329.5C 502.96,312.628 495.46,303.961 478.5,303.5 Z"/></g>
<g><path style="opacity:1" fill="#313131" d="M 615.5,307.5 C 615.427,309.027 616.094,310.027 617.5,310.5C 625.232,325.808 621.565,337.641 606.5,346C 590.075,351.037 578.909,345.537 573,329.5C 570.759,311.57 578.593,301.237 596.5,298.5C 604.311,298.646 610.645,301.646 615.5,307.5 Z M 592.5,303.5 C 587.983,305.023 584.15,307.689 581,311.5C 575.435,321.579 576.602,330.745 584.5,339C 598.748,346.648 609.248,343.148 616,328.5C 617.252,311.689 609.419,303.355 592.5,303.5 Z"/></g>
<g><path style="opacity:0.408" fill="#a5a5a5" d="M 463.5,307.5 C 463.573,309.027 462.906,310.027 461.5,310.5C 461.427,308.973 462.094,307.973 463.5,307.5 Z"/></g>
<g><path style="opacity:0.408" fill="#a6a6a6" d="M 615.5,307.5 C 616.906,307.973 617.573,308.973 617.5,310.5C 616.094,310.027 615.427,309.027 615.5,307.5 Z"/></g>
<g><path style="opacity:0.999" fill="#111111" d="M 481.5,310.5 C 493.493,313.152 496.993,320.152 492,331.5C 485.535,336.806 479.035,336.806 472.5,331.5C 467.182,320.762 470.182,313.762 481.5,310.5 Z"/></g>
<g><path style="opacity:0.999" fill="#101010" d="M 596.5,310.5 C 607.125,312.64 610.958,318.973 608,329.5C 601.573,336.643 594.573,337.31 587,331.5C 582.104,320.635 585.27,313.635 596.5,310.5 Z"/></g>
<g><path style="opacity:0.745" fill="#7c7c7c" d="M 504.5,313.5 C 506.019,316.526 506.685,319.859 506.5,323.5C 506.497,326.025 506.163,328.359 505.5,330.5C 505.625,324.797 505.292,319.13 504.5,313.5 Z"/></g>
<g><path style="opacity:1" fill="#2f2f2f" d="M 531.5,387.5 C 556.106,385.114 570.106,396.114 573.5,420.5C 570.069,445.106 556.069,455.94 531.5,453C 511.993,446.502 503.826,433.002 507,412.5C 510.683,399.651 518.85,391.318 531.5,387.5 Z M 537.5,391.5 C 555.89,392.557 566.223,402.223 568.5,420.5C 566.5,437.833 556.833,447.5 539.5,449.5C 522.167,447.5 512.5,437.833 510.5,420.5C 512.354,403.985 521.354,394.318 537.5,391.5 Z"/></g>
<g><path style="opacity:1" fill="#0c0c0c" d="M 534.5,404.5 C 551.194,404.222 557.694,412.222 554,428.5C 549.351,435.499 542.851,437.999 534.5,436C 524.145,431.3 520.979,423.466 525,412.5C 527.735,409.231 530.901,406.564 534.5,404.5 Z"/></g>
<g><path style="opacity:1" fill="#3a3a3a" d="M 768.5,438.5 C 768.12,440.698 768.787,442.365 770.5,443.5C 760.302,475.53 742.635,502.697 717.5,525C 696.384,543.563 672.718,558.063 646.5,568.5C 646.737,567.209 646.404,566.209 645.5,565.5C 698.292,544.212 737.125,507.879 762,456.5C 764.299,450.429 766.465,444.429 768.5,438.5 Z"/></g>
<g><path style="opacity:0.999" fill="#363636" d="M 316.5,455.5 C 340.85,504.68 378.183,540.513 428.5,563C 434.704,565.276 440.704,567.776 446.5,570.5C 444.517,570.157 443.183,570.824 442.5,572.5C 390.275,553.815 349.775,520.815 321,473.5C 318.548,468.932 316.382,464.265 314.5,459.5C 316.176,458.817 316.843,457.483 316.5,455.5 Z"/></g>
<g><path style="opacity:1" fill="#333333" d="M 645.5,565.5 C 646.404,566.209 646.737,567.209 646.5,568.5C 622.675,579.004 597.675,585.337 571.5,587.5C 564.646,587.735 557.979,588.402 551.5,589.5C 541.833,589.5 532.167,589.5 522.5,589.5C 517.694,588.407 512.694,587.741 507.5,587.5C 484.957,585.779 463.29,580.779 442.5,572.5C 443.183,570.824 444.517,570.157 446.5,570.5C 513.423,591.957 579.757,590.29 645.5,565.5 Z"/></g>
<g><path style="opacity:0.048" fill="#e9e9e9" d="M 507.5,587.5 C 512.694,587.741 517.694,588.407 522.5,589.5C 486.833,589.5 451.167,589.5 415.5,589.5C 446.167,588.833 476.833,588.167 507.5,587.5 Z"/></g>
<g><path style="opacity:0.049" fill="#e8e8e8" d="M 571.5,587.5 C 602.167,588.167 632.833,588.833 663.5,589.5C 626.167,589.5 588.833,589.5 551.5,589.5C 557.979,588.402 564.646,587.735 571.5,587.5 Z"/></g>
<g><path style="opacity:1" fill="#262626" d="M 415.5,589.5 C 451.167,589.5 486.833,589.5 522.5,589.5C 532.167,589.5 541.833,589.5 551.5,589.5C 588.833,589.5 626.167,589.5 663.5,589.5C 682.17,589.758 699.503,594.425 715.5,603.5C 714.71,604.401 713.71,605.068 712.5,605.5C 705.061,602.186 697.395,599.352 689.5,597C 681.324,594.693 672.991,593.36 664.5,593C 577.482,592.029 490.482,592.363 403.5,594C 368.837,599.979 341.837,617.479 322.5,646.5C 322.67,645.178 322.337,644.011 321.5,643C 322.823,642.184 323.489,641.017 323.5,639.5C 323.738,637.596 324.738,636.262 326.5,635.5C 327.906,635.027 328.573,634.027 328.5,632.5C 331.195,629.474 333.862,626.474 336.5,623.5C 338.749,622.92 340.415,621.587 341.5,619.5C 362.104,599.954 386.77,589.954 415.5,589.5 Z"/></g>
<g><path style="opacity:0.761" fill="#7d7d7d" d="M 341.5,619.5 C 340.415,621.587 338.749,622.92 336.5,623.5C 337.585,621.413 339.251,620.08 341.5,619.5 Z"/></g>
<g><path style="opacity:0.502" fill="#9b9b9b" d="M 328.5,632.5 C 328.573,634.027 327.906,635.027 326.5,635.5C 326.427,633.973 327.094,632.973 328.5,632.5 Z"/></g>
<g><path style="opacity:0.998" fill="#3b3b3b" d="M 715.5,603.5 C 733.618,612.78 748.118,626.113 759,643.5C 766.053,654.269 770.886,665.936 773.5,678.5C 773.41,681.152 774.076,683.485 775.5,685.5C 776.301,687.042 776.634,688.708 776.5,690.5C 775.596,689.791 775.263,688.791 775.5,687.5C 774.5,687.5 773.5,687.5 772.5,687.5C 764.319,651.347 744.319,624.013 712.5,605.5C 713.71,605.068 714.71,604.401 715.5,603.5 Z"/></g>
<g><path style="opacity:0.999" fill="#3b3b3b" d="M 323.5,639.5 C 323.489,641.017 322.823,642.184 321.5,643C 322.337,644.011 322.67,645.178 322.5,646.5C 305.729,674.894 301.062,705.227 308.5,737.5C 308.946,740.01 308.28,742.01 306.5,743.5C 296.162,707.366 300.995,673.366 321,641.5C 321.708,640.619 322.542,639.953 323.5,639.5 Z"/></g>
<g><path style="opacity:0.999" fill="#333333" d="M 464.5,645.5 C 491.854,644.754 512.354,656.088 526,679.5C 539.534,713.209 531.701,740.709 502.5,762C 478.904,774.115 455.904,773.115 433.5,759C 413.383,743.002 405.216,722.168 409,696.5C 416.581,667.412 435.081,650.412 464.5,645.5 Z M 464.5,650.5 C 492.42,650.034 512.254,662.367 524,687.5C 532.727,716.991 524.56,740.491 499.5,758C 466.855,773.001 440.355,765.834 420,736.5C 406.45,706.201 412.617,680.701 438.5,660C 446.723,655.318 455.389,652.151 464.5,650.5 Z"/></g>
<g><path style="opacity:1" fill="#333333" d="M 587.5,760.5 C 587.027,759.094 586.027,758.427 584.5,758.5C 563.257,742.1 555.257,720.767 560.5,694.5C 561.924,692.485 562.59,690.152 562.5,687.5C 564.829,679.189 569.162,672.189 575.5,666.5C 577.5,665.167 579.167,663.5 580.5,661.5C 588.22,653.805 597.553,648.971 608.5,647C 641.144,642.569 664.644,655.069 679,684.5C 688.847,714.952 681.347,740.118 656.5,760C 639.701,770.466 621.701,773.132 602.5,768C 596.881,766.524 591.881,764.024 587.5,760.5 Z M 614.5,650.5 C 639.056,649.194 657.889,658.861 671,679.5C 684.904,709.598 679.071,735.098 653.5,756C 631.833,768.667 610.167,768.667 588.5,756C 567.262,739.346 559.762,717.846 566,691.5C 574.463,668.524 590.63,654.857 614.5,650.5 Z"/></g>
<g><path style="opacity:0.71" fill="#8c8c8c" d="M 580.5,661.5 C 579.167,663.5 577.5,665.167 575.5,666.5C 576.167,663.833 577.833,662.167 580.5,661.5 Z"/></g>
<g><path style="opacity:1" fill="#080808" d="M 468.5,674.5 C 493.605,676.769 505.105,690.435 503,715.5C 496.758,735.218 483.258,743.718 462.5,741C 446.199,736.086 437.533,725.086 436.5,708C 438.238,688.099 448.905,676.932 468.5,674.5 Z"/></g>
<g><path style="opacity:1" fill="#090909" d="M 619.5,674.5 C 644.592,676.757 656.092,690.423 654,715.5C 647.705,735.24 634.205,743.74 613.5,741C 594.365,735.235 585.865,722.402 588,702.5C 591.954,685.633 602.454,676.299 619.5,674.5 Z"/></g>
<g><path style="opacity:0.698" fill="#7a7a7a" d="M 773.5,678.5 C 774.924,680.515 775.59,682.848 775.5,685.5C 774.076,683.485 773.41,681.152 773.5,678.5 Z"/></g>
<g><path style="opacity:1" fill="#373737" d="M 772.5,687.5 C 773.5,687.5 774.5,687.5 775.5,687.5C 775.263,688.791 775.596,689.791 776.5,690.5C 778.744,708.479 777.41,726.146 772.5,743.5C 770.72,742.01 770.054,740.01 770.5,737.5C 773.622,720.952 774.289,704.286 772.5,687.5 Z"/></g>
<g><path style="opacity:0.698" fill="#7b7b7b" d="M 562.5,687.5 C 562.59,690.152 561.924,692.485 560.5,694.5C 560.41,691.848 561.076,689.515 562.5,687.5 Z"/></g>
<g><path style="opacity:0.998" fill="#404040" d="M 308.5,737.5 C 319.865,774.866 343.531,801.199 379.5,816.5C 377.517,816.157 376.183,816.824 375.5,818.5C 341.09,804.087 318.09,779.087 306.5,743.5C 308.28,742.01 308.946,740.01 308.5,737.5 Z"/></g>
<g><path style="opacity:0.392" fill="#a4a4a4" d="M 584.5,758.5 C 586.027,758.427 587.027,759.094 587.5,760.5C 585.973,760.573 584.973,759.906 584.5,758.5 Z"/></g>
<g><path style="opacity:0.999" fill="#404040" d="M 770.5,737.5 C 770.054,740.01 770.72,742.01 772.5,743.5C 760.91,779.087 737.91,804.087 703.5,818.5C 702.817,816.824 701.483,816.157 699.5,816.5C 735.469,801.199 759.135,774.866 770.5,737.5 Z"/></g>
<g><path style="opacity:1" fill="#3d3d3d" d="M 379.5,816.5 C 388.672,819.293 398.005,821.459 407.5,823C 495.5,823.667 583.5,823.667 671.5,823C 680.995,821.459 690.328,819.293 699.5,816.5C 701.483,816.157 702.817,816.824 703.5,818.5C 693.445,823.152 682.778,825.985 671.5,827C 583.5,827.667 495.5,827.667 407.5,827C 396.222,825.985 385.555,823.152 375.5,818.5C 376.183,816.824 377.517,816.157 379.5,816.5 Z"/></g>
</svg>
