<?xml version="1.0" encoding="UTF-8"?>
<!DOCTYPE svg PUBLIC "-//W3C//DTD SVG 1.1//EN" "http://www.w3.org/Graphics/SVG/1.1/DTD/svg11.dtd">
<svg xmlns="http://www.w3.org/2000/svg" version="1.1" width="1080px" height="1080px" style="shape-rendering:geometricPrecision; text-rendering:geometricPrecision; image-rendering:optimizeQuality; fill-rule:evenodd; clip-rule:evenodd" xmlns:xlink="http://www.w3.org/1999/xlink">
<g><path style="opacity:1" fill="#262626" d="M 527.5,289.5 C 604.982,288.007 670.482,315.007 724,370.5C 788.716,447.09 805.05,533.09 773,628.5C 741.65,704.94 686.483,755.44 607.5,780C 518.632,802.03 439.632,783.364 370.5,724C 299.245,653.535 275.412,569.369 299,471.5C 328.955,377.545 391.788,318.712 487.5,295C 500.887,292.495 514.221,290.662 527.5,289.5 Z M 522.5,294.5 C 620.914,291.949 696.747,331.616 750,413.5C 791.08,487.054 795.413,562.721 763,640.5C 729.553,710.609 675.387,756.109 600.5,777C 505.501,797.438 424.334,772.938 357,703.5C 297.103,632.023 280.436,551.356 307,461.5C 337.187,379.312 394.354,326.146 478.5,302C 493.158,298.6 507.824,296.1 522.5,294.5 Z M 532.5,336.5 C 564.157,335.239 586.657,348.906 600,377.5C 611.029,416.264 598.529,444.43 562.5,462C 532.262,471.318 507.095,463.818 487,439.5C 470.15,413.313 470.483,387.313 488,361.5C 499.813,347.517 514.646,339.183 532.5,336.5 Z M 398.5,474.5 C 425.277,474.965 445.443,486.632 459,509.5C 467.938,530.32 467.605,550.986 458,571.5C 439.264,599.639 413.43,609.472 380.5,601C 347.193,586.676 333.026,561.509 338,525.5C 346.794,494.864 366.96,477.864 398.5,474.5 Z M 674.5,474.5 C 708.834,475.74 731.001,492.74 741,525.5C 746.086,565.169 729.586,591.003 691.5,603C 656.476,607.909 631.642,594.409 617,562.5C 606.513,525.592 618.013,498.092 651.5,480C 659.117,477.344 666.784,475.511 674.5,474.5 Z M 532.5,605.5 C 564.157,604.239 586.657,617.906 600,646.5C 610.731,683.664 599.231,711.498 565.5,730C 533.611,741.238 507.111,733.738 486,707.5C 470.243,681.404 470.91,655.737 488,630.5C 499.813,616.517 514.646,608.183 532.5,605.5 Z"/></g>
<g><path style="opacity:1" fill="#252525" d="M 526.5,332.5 C 567.112,328.87 593.945,346.204 607,384.5C 613.146,420.033 600.646,446.533 569.5,464C 536.087,477.021 507.587,470.187 484,443.5C 470.556,424.274 466.89,403.274 473,380.5C 482.228,354.766 500.061,338.766 526.5,332.5 Z M 532.5,336.5 C 514.646,339.183 499.813,347.517 488,361.5C 470.483,387.313 470.15,413.313 487,439.5C 507.095,463.818 532.262,471.318 562.5,462C 598.529,444.43 611.029,416.264 600,377.5C 586.657,348.906 564.157,335.239 532.5,336.5 Z"/></g>
<g><path style="opacity:1" fill="#060606" d="M 532.5,366.5 C 553.948,364.792 567.782,374.126 574,394.5C 575.488,419.199 563.988,433.199 539.5,436.5C 515.012,433.199 503.512,419.199 505,394.5C 508.75,379.733 517.916,370.4 532.5,366.5 Z"/></g>
<g><path style="opacity:1" fill="#262626" d="M 390.5,470.5 C 428.918,467.944 454.752,484.611 468,520.5C 475.787,557.754 462.954,585.254 429.5,603C 395.956,615.074 367.789,607.574 345,580.5C 333.759,564.194 329.759,546.194 333,526.5C 340.54,495.792 359.707,477.125 390.5,470.5 Z M 398.5,474.5 C 366.96,477.864 346.794,494.864 338,525.5C 333.026,561.509 347.193,586.676 380.5,601C 413.43,609.472 439.264,599.639 458,571.5C 467.605,550.986 467.938,530.32 459,509.5C 445.443,486.632 425.277,474.965 398.5,474.5 Z"/></g>
<g><path style="opacity:1" fill="#262626" d="M 666.5,470.5 C 708.218,467.917 734.718,486.583 746,526.5C 750.17,562.604 736.004,588.437 703.5,604C 669.731,614.631 641.898,606.131 620,578.5C 604.667,552.5 604.667,526.5 620,500.5C 631.757,484.548 647.257,474.548 666.5,470.5 Z M 674.5,474.5 C 666.784,475.511 659.117,477.344 651.5,480C 618.013,498.092 606.513,525.592 617,562.5C 631.642,594.409 656.476,607.909 691.5,603C 729.586,591.003 746.086,565.169 741,525.5C 731.001,492.74 708.834,475.74 674.5,474.5 Z"/></g>
<g><path style="opacity:1" fill="#060606" d="M 395.5,504.5 C 419.79,503.802 433.457,515.468 436.5,539.5C 433.493,563.67 419.827,575.17 395.5,574C 374.213,568.258 364.713,554.425 367,532.5C 371.089,517.578 380.589,508.244 395.5,504.5 Z"/></g>
<g><path style="opacity:1" fill="#060606" d="M 671.5,504.5 C 686.937,503.304 699.104,508.97 708,521.5C 716.587,539.464 713.42,554.964 698.5,568C 678.889,579.051 662.055,575.884 648,558.5C 638.736,539.479 642.236,523.313 658.5,510C 662.741,507.651 667.075,505.818 671.5,504.5 Z"/></g>
<g><path style="opacity:1" fill="#252525" d="M 526.5,601.5 C 562.56,597.785 588.393,612.118 604,644.5C 615.442,681.185 605.275,710.018 573.5,731C 537.272,747.483 506.772,740.316 482,709.5C 469.443,688.992 467.11,667.325 475,644.5C 485.391,621.934 502.557,607.601 526.5,601.5 Z M 532.5,605.5 C 514.646,608.183 499.813,616.517 488,630.5C 470.91,655.737 470.243,681.404 486,707.5C 507.111,733.738 533.611,741.238 565.5,730C 599.231,711.498 610.731,683.664 600,646.5C 586.657,617.906 564.157,604.239 532.5,605.5 Z"/></g>
<g><path style="opacity:1" fill="#060606" d="M 533.5,635.5 C 561.319,635.151 574.819,648.818 574,676.5C 567.498,699.006 552.665,708.173 529.5,704C 511.001,696.848 502.835,683.348 505,663.5C 508.99,648.445 518.49,639.112 533.5,635.5 Z"/></g>
</svg>
