<?xml version="1.0" encoding="UTF-8"?>
<!DOCTYPE svg PUBLIC "-//W3C//DTD SVG 1.1//EN" "http://www.w3.org/Graphics/SVG/1.1/DTD/svg11.dtd">
<svg xmlns="http://www.w3.org/2000/svg" version="1.1" width="1080px" height="1080px" style="shape-rendering:geometricPrecision; text-rendering:geometricPrecision; image-rendering:optimizeQuality; fill-rule:evenodd; clip-rule:evenodd" xmlns:xlink="http://www.w3.org/1999/xlink">
<g><path style="opacity:1" fill="#2b2b2b" d="M 255.5,338.5 C 444.833,338.5 634.167,338.5 823.5,338.5C 823.964,404.187 823.464,469.854 822,535.5C 815.125,578.914 796.791,616.581 767,648.5C 714.461,701.049 650.961,731.216 576.5,739C 489.521,748.344 411.187,727.011 341.5,675C 303.001,645.171 276.501,607.004 262,560.5C 259.82,552.269 258.154,543.935 257,535.5C 255.532,469.856 255.032,404.189 255.5,338.5 Z M 259.5,341.5 C 446.167,341.5 632.833,341.5 819.5,341.5C 819.667,404.168 819.5,466.834 819,529.5C 813.193,575.107 794.527,614.44 763,647.5C 711.556,697.965 649.722,727.131 577.5,735C 488.501,744.842 408.834,722.508 338.5,668C 300.591,636.695 275.424,597.195 263,549.5C 261.783,542.865 260.783,536.199 260,529.5C 259.5,466.834 259.333,404.168 259.5,341.5 Z M 474.5,370.5 C 499.02,368.811 511.187,380.144 511,404.5C 504.882,425.145 491.382,432.645 470.5,427C 453.563,418.126 448.396,404.626 455,386.5C 459.567,378.656 466.067,373.322 474.5,370.5 Z M 589.5,370.5 C 615.144,368.978 627.311,380.978 626,406.5C 621.671,420.823 612.004,428.49 597,429.5C 576.381,426.883 566.715,415.216 568,394.5C 570.82,382.477 577.987,374.477 589.5,370.5 Z M 358.5,463.5 C 391.69,460.885 412.524,475.551 421,507.5C 423.484,540.665 408.651,561.165 376.5,569C 344.7,571.177 324.533,557.01 316,526.5C 312.992,493.709 327.159,472.709 358.5,463.5 Z M 529.5,463.5 C 562.69,460.885 583.524,475.551 592,507.5C 594.834,534.672 584,554.172 559.5,566C 533.412,574.274 511.912,567.774 495,546.5C 483.667,526.5 483.667,506.5 495,486.5C 503.674,474.425 515.174,466.759 529.5,463.5 Z M 700.5,463.5 C 732.225,460.768 753.059,474.435 763,504.5C 767.413,536.181 754.58,557.347 724.5,568C 696.407,573.368 675.573,563.535 662,538.5C 652.474,512.43 658.307,490.597 679.5,473C 686.095,468.698 693.095,465.531 700.5,463.5 Z M 458.5,591.5 C 490.771,588.705 511.604,602.705 521,633.5C 524.564,664.554 511.731,685.387 482.5,696C 449.656,701.506 427.822,688.673 417,657.5C 412.136,633.753 419.302,614.586 438.5,600C 444.889,596.3 451.556,593.466 458.5,591.5 Z M 603.5,591.5 C 635.225,588.768 656.059,602.435 666,632.5C 670.131,664.021 657.297,685.188 627.5,696C 602.997,701.28 583.497,693.78 569,673.5C 554.495,645.69 558.995,621.523 582.5,601C 589.095,596.698 596.095,593.531 603.5,591.5 Z"/></g>
<g><path style="opacity:1" fill="#242424" d="M 477.5,365.5 C 505.095,366.598 517.595,380.932 515,408.5C 508.162,427.508 494.662,435.675 474.5,433C 452.01,425.192 443.844,409.692 450,386.5C 455.598,374.725 464.765,367.725 477.5,365.5 Z M 474.5,370.5 C 466.067,373.322 459.567,378.656 455,386.5C 448.396,404.626 453.563,418.126 470.5,427C 491.382,432.645 504.882,425.145 511,404.5C 511.187,380.144 499.02,368.811 474.5,370.5 Z"/></g>
<g><path style="opacity:1" fill="#242424" d="M 592.5,365.5 C 613.305,364.826 626.138,374.493 631,394.5C 631.013,422.151 617.18,434.984 589.5,433C 569.441,426.398 560.941,412.565 564,391.5C 568.348,376.978 577.848,368.311 592.5,365.5 Z M 589.5,370.5 C 577.987,374.477 570.82,382.477 568,394.5C 566.715,415.216 576.381,426.883 597,429.5C 612.004,428.49 621.671,420.823 626,406.5C 627.311,380.978 615.144,368.978 589.5,370.5 Z"/></g>
<g><path style="opacity:1" fill="#0b0b0b" d="M 476.5,385.5 C 490.308,383.813 496.808,389.813 496,403.5C 492.274,413.193 485.44,416.359 475.5,413C 467.127,407.199 465.293,399.699 470,390.5C 471.965,388.45 474.132,386.783 476.5,385.5 Z"/></g>
<g><path style="opacity:1" fill="#0b0b0b" d="M 591.5,385.5 C 608.955,384.447 614.789,392.113 609,408.5C 603.081,414.87 596.247,416.037 588.5,412C 579.777,401.956 580.777,393.123 591.5,385.5 Z"/></g>
<g><path style="opacity:1" fill="#252525" d="M 360.5,458.5 C 393.429,457.28 414.929,472.28 425,503.5C 429.372,529.059 421.205,549.559 400.5,565C 374.219,579.19 349.719,576.69 327,557.5C 306.994,533.398 305.327,508.065 322,481.5C 332.202,469.32 345.036,461.653 360.5,458.5 Z M 358.5,463.5 C 327.159,472.709 312.992,493.709 316,526.5C 324.533,557.01 344.7,571.177 376.5,569C 408.651,561.165 423.484,540.665 421,507.5C 412.524,475.551 391.69,460.885 358.5,463.5 Z"/></g>
<g><path style="opacity:1" fill="#252525" d="M 531.5,458.5 C 564.481,457.347 585.981,472.347 596,503.5C 600.629,538.759 586.129,561.926 552.5,573C 517.305,577.655 494.139,563.155 483,529.5C 478.388,497.811 490.555,475.311 519.5,462C 523.623,460.808 527.623,459.641 531.5,458.5 Z M 529.5,463.5 C 515.174,466.759 503.674,474.425 495,486.5C 483.667,506.5 483.667,526.5 495,546.5C 511.912,567.774 533.412,574.274 559.5,566C 584,554.172 594.834,534.672 592,507.5C 583.524,475.551 562.69,460.885 529.5,463.5 Z"/></g>
<g><path style="opacity:1" fill="#252525" d="M 703.5,458.5 C 737.674,457.654 759.174,473.654 768,506.5C 770.989,535.698 759.489,556.865 733.5,570C 702.438,580.039 677.938,571.539 660,544.5C 646.155,513.042 652.988,487.208 680.5,467C 687.87,462.965 695.537,460.132 703.5,458.5 Z M 700.5,463.5 C 693.095,465.531 686.095,468.698 679.5,473C 658.307,490.597 652.474,512.43 662,538.5C 675.573,563.535 696.407,573.368 724.5,568C 754.58,557.347 767.413,536.181 763,504.5C 753.059,474.435 732.225,460.768 700.5,463.5 Z"/></g>
<g><path style="opacity:1" fill="#090909" d="M 363.5,492.5 C 385.03,492.567 394.197,503.233 391,524.5C 382.632,540.244 370.465,544.077 354.5,536C 343.936,526.895 341.769,516.062 348,503.5C 351.962,498.023 357.129,494.356 363.5,492.5 Z"/></g>
<g><path style="opacity:1" fill="#080808" d="M 534.5,492.5 C 547.76,491.04 556.927,496.373 562,508.5C 565.612,526.935 558.112,537.601 539.5,540.5C 523.105,538.276 515.271,528.943 516,512.5C 518.248,502.089 524.415,495.422 534.5,492.5 Z"/></g>
<g><path style="opacity:1" fill="#070707" d="M 705.5,492.5 C 726.145,491.977 735.645,501.977 734,522.5C 727.043,539.045 715.21,543.879 698.5,537C 688.726,530.36 685.226,521.193 688,509.5C 691.084,500.915 696.917,495.248 705.5,492.5 Z"/></g>
<g><path style="opacity:1" fill="#252525" d="M 460.5,586.5 C 488.915,584.615 509.415,596.282 522,621.5C 532.962,655.967 522.462,681.467 490.5,698C 464.15,706.954 441.65,701.121 423,680.5C 405.543,653.832 406.877,628.165 427,603.5C 436.535,594.483 447.702,588.816 460.5,586.5 Z M 458.5,591.5 C 451.556,593.466 444.889,596.3 438.5,600C 419.302,614.586 412.136,633.753 417,657.5C 427.822,688.673 449.656,701.506 482.5,696C 511.731,685.387 524.564,664.554 521,633.5C 511.604,602.705 490.771,588.705 458.5,591.5 Z"/></g>
<g><path style="opacity:1" fill="#242424" d="M 606.5,586.5 C 635.572,584.939 656.072,597.273 668,623.5C 676.938,654.703 667.771,678.869 640.5,696C 608.227,708.906 582.394,701.073 563,672.5C 548.833,639.344 556.667,612.844 586.5,593C 592.992,589.891 599.658,587.724 606.5,586.5 Z M 603.5,591.5 C 596.095,593.531 589.095,596.698 582.5,601C 558.995,621.523 554.495,645.69 569,673.5C 583.497,693.78 602.997,701.28 627.5,696C 657.297,685.188 670.131,664.021 666,632.5C 656.059,602.435 635.225,588.768 603.5,591.5 Z"/></g>
<g><path style="opacity:1" fill="#080808" d="M 463.5,620.5 C 476.275,619.133 485.441,624.133 491,635.5C 494.944,654.273 487.444,665.273 468.5,668.5C 449.904,665.643 442.404,654.977 446,636.5C 449.536,628.456 455.369,623.123 463.5,620.5 Z"/></g>
<g><path style="opacity:1" fill="#070707" d="M 608.5,620.5 C 630.877,620.614 640.043,631.614 636,653.5C 628.04,667.699 616.54,671.533 601.5,665C 591.726,658.36 588.226,649.193 591,637.5C 594.084,628.915 599.917,623.248 608.5,620.5 Z"/></g>
</svg>
